# xmcd CD database file
#
# Track frame offsets:
#	150
#	21266
#	42216
#	65027
#	87724
#	103859
#	123928
#	145864
#	171407
#	191815
#	211218
#	229837
#	251413
#	274648
#	294659
#
# Disc length: 4151 seconds
#
# Revision: 1
# Processed by: cddbd v1.5.2PL0 Copyright (c) Steve Scherf et al.
# Submitted via: CDex 1.91
#
DISCID=e710350f
DTITLE=Various Artist - The Romantic Jazz Collection (Disk 2)
DYEAR=2008
DGENRE=Jazz
TTITLE0=Ed Smith - A Soothing Sound
TTITLE1=Ed Smith - It's 5 O'clock, Somewhere
TTITLE2=Wayne Jones - Dancing Shadows
TTITLE3=Ed Smith - Hold On Tight
TTITLE4=Ed Smith - Pacific Coast Highway
TTITLE5=Wayne Jones - With Every Look
TTITLE6=Wayne Jones - Time With You
TTITLE7=Wayne Jones - Time Has A Way
TTITLE8=Ed Smith - Eclipse
TTITLE9=Wayne Jones - Reunion
TTITLE10=Rob Arthur - After All
TTITLE11=Wayne Jones - Glad To Be Here
TTITLE12=Wayne Jones - Dance With Me
TTITLE13=Ed Smith - Night Lights
TTITLE14=Rob Arthur - 12:01 A.M.
EXTD=YEAR: 2008
EXTT0=
EXTT1=
EXTT2=
EXTT3=
EXTT4=
EXTT5=
EXTT6=
EXTT7=
EXTT8=
EXTT9=
EXTT10=
EXTT11=
EXTT12=
EXTT13=
EXTT14=
PLAYORDER=
